<svg fill="#000000" width="20px" height="20px" viewBox="0 0 0.6 0.6" xmlns="http://www.w3.org/2000/svg"><path d="M0.4 0.1H0.2v0.013a0.013 0.013 0 0 1 -0.025 0V0.1H0.138A0.038 0.038 0 0 0 0.1 0.138V0.2h0.4V0.138A0.038 0.038 0 0 0 0.463 0.1H0.425v0.013a0.013 0.013 0 1 1 -0.025 0zm0.025 -0.025h0.038A0.063 0.063 0 0 1 0.525 0.138v0.325a0.063 0.063 0 0 1 -0.063 0.063h-0.325a0.063 0.063 0 0 1 -0.063 -0.063V0.138A0.063 0.063 0 0 1 0.138 0.075H0.175v-0.013a0.013 0.013 0 0 1 0.025 0V0.075h0.2v-0.013a0.013 0.013 0 1 1 0.025 0zm0.075 0.15H0.1v0.238a0.038 0.038 0 0 0 0.038 0.038h0.325a0.038 0.038 0 0 0 0.038 -0.038z"/></svg>