<svg width="15px" height="15px" viewBox="0 0 0.281 0.281" fill="none" xmlns="http://www.w3.org/2000/svg"><path fill-rule="evenodd" clip-rule="evenodd" d="M0.133 0.004a0.011 0.011 0 0 1 0.016 0l0.127 0.124a0.011 0.011 0 0 1 -0.016 0.016L0.244 0.129V0.234a0.009 0.009 0 0 1 -0.009 0.009h-0.188a0.009 0.009 0 0 1 -0.009 -0.009V0.129l-0.016 0.015a0.011 0.011 0 1 1 -0.016 -0.016zm0.008 0.024L0.225 0.111V0.225h-0.037V0.159a0.009 0.009 0 0 0 -0.009 -0.009h-0.056a0.009 0.009 0 0 0 -0.009 0.009V0.225H0.056V0.111zM0.131 0.225h0.037V0.169H0.131z" fill="#000000"/></svg>