<svg version="1.1" id="Capa_1" xmlns="http://www.w3.org/2000/svg" xmlns:xlink="http://www.w3.org/1999/xlink" x="0px" y="0px" viewBox="0 0 15 15" style="enable-background:new 0 0 488.898 488.898;" xml:space="preserve" transform="rotate(180)" width="15" height="15"><g><g><path d="M14.949 6.71c-0.549 -5.161 -5.265 -7.001 -8.266 -6.673 -2.237 0.245 -4.213 1.47 -5.458 3.35 -0.19 0.288 -0.129 0.669 0.16 0.862s0.669 0.095 0.862 -0.19c1.052 -1.565 2.712 -2.586 4.565 -2.777 3.179 -0.328 6.247 1.608 6.894 5.553 0.476 2.896 -1.798 6.523 -5.553 6.894 -2.289 0.227 -4.519 -0.795 -5.811 -2.654l1.181 0.261c0.319 0.064 0.669 -0.129 0.733 -0.479 0.064 -0.319 -0.129 -0.669 -0.479 -0.733l-2.488 -0.543c-0.16 -0.031 -0.675 -0.012 -0.767 0.479l-0.509 2.522c-0.064 0.319 0.129 0.669 0.479 0.733 0.399 0.034 0.669 -0.19 0.733 -0.509l0.19 -0.865c2.439 3.415 6.606 3.062 6.863 3.037 3.995 -0.393 7.155 -3.746 6.67 -8.269"/><path d="M7.991 3.964c-0.35 0 -0.638 0.288 -0.638 0.638v2.906c0 0.16 0.064 0.319 0.19 0.448l2.906 2.906c0.374 0.356 0.767 0.129 0.927 0.031 0.255 -0.255 0.255 -0.638 0 -0.893l-2.746 -2.746v-2.648c0.003 -0.353 -0.285 -0.641 -0.638 -0.641"/></g></g></svg>